<?xml version="1.0" standalone="no"?>
<!DOCTYPE svg PUBLIC "-//W3C//DTD SVG 20010904//EN"
 "http://www.w3.org/TR/2001/REC-SVG-20010904/DTD/svg10.dtd">
<svg version="1.0" xmlns="http://www.w3.org/2000/svg"
 width="400.000000pt" height="400.000000pt" viewBox="0 0 400.000000 400.000000"
 preserveAspectRatio="xMidYMid meet">
<metadata>
Created by potrace 1.14, written by Peter Selinger 2001-2017
</metadata>
<g transform="translate(0.000000,400.000000) scale(0.100000,-0.100000)"
fill="#000000" stroke="none">
<path d="M1780 3609 c-63 -9 -127 -22 -142 -28 -16 -6 -28 -9 -28 -6 0 7 -145
-47 -229 -86 -81 -38 -224 -127 -286 -178 -83 -69 -220 -220 -278 -308 -105
-157 -186 -348 -216 -508 -35 -183 -35 -411 -1 -561 7 -27 13 -56 15 -64 38
-181 172 -443 245 -480 89 -45 194 -8 231 80 22 53 13 106 -34 188 -154 270
-190 543 -113 847 2 6 5 17 8 25 3 8 14 38 23 65 78 225 277 451 505 573 63
34 213 94 230 93 3 0 21 4 40 9 93 25 259 30 385 13 368 -50 684 -286 839
-626 65 -142 94 -281 94 -449 0 -173 -31 -313 -104 -465 -19 -40 -37 -86 -40
-102 -20 -99 58 -193 161 -193 83 0 129 42 189 174 37 82 83 219 92 277 3 20
8 39 10 42 2 4 6 31 10 60 3 30 8 57 10 61 6 10 5 255 -1 308 -77 650 -592
1170 -1235 1246 -111 13 -267 10 -380 -7z"/>
<path d="M1982 2803 c-10 -10 -38 -52 -62 -93 -23 -41 -119 -208 -212 -370
-94 -162 -179 -311 -190 -330 -45 -79 -119 -206 -128 -220 -5 -8 -24 -42 -43
-75 -18 -33 -57 -100 -87 -150 -29 -49 -86 -148 -126 -220 -41 -71 -78 -137
-83 -145 -9 -14 -45 -76 -270 -465 -95 -165 -102 -202 -49 -256 29 -28 46 -33
98 -29 43 3 65 26 120 122 29 51 61 107 70 123 10 17 108 188 220 380 111 193
216 374 232 403 17 30 57 99 89 154 32 55 59 101 59 103 0 3 14 26 30 52 l31
48 92 1 c398 7 599 6 606 -2 8 -8 505 -866 597 -1031 86 -153 159 -271 179
-292 15 -16 37 -25 62 -26 106 -7 159 94 99 185 -14 22 -26 42 -26 45 0 3 -11
22 -24 43 -13 20 -86 145 -161 277 -76 132 -204 353 -283 490 -80 138 -154
266 -165 285 -10 19 -121 211 -245 425 -124 215 -241 419 -260 455 -55 105
-78 130 -116 130 -19 0 -43 -8 -54 -17z m308 -814 c0 -4 -82 -7 -182 -9 -101
-1 -214 -3 -253 -4 -38 -1 -75 0 -82 2 -7 2 -1 22 19 55 17 29 74 126 126 217
52 91 99 171 105 178 7 9 44 -47 138 -210 71 -123 129 -226 129 -229z"/>
<path d="M2455 1234 c-149 -74 -323 -109 -505 -101 -149 7 -159 8 -275 43 -49
15 -100 29 -112 31 -74 16 -165 -46 -181 -123 -22 -102 28 -169 159 -214 47
-16 101 -32 120 -35 19 -3 50 -10 69 -15 47 -12 178 -23 267 -23 165 1 306 26
469 84 47 17 90 27 94 22 4 -4 73 -119 154 -255 140 -236 164 -268 201 -268
23 0 65 45 65 70 0 20 -459 810 -470 809 -3 0 -27 -11 -55 -25z"/>
</g>
</svg>
